HIT AND RUN 2009 DVDRip H264 PSP

Format                           : MPEG-4
Format profile                   : Base Media / Version 2
Codec ID                         : mp42
File size                        : 269 MiB
Duration                         : 1h 23mn
Overall bit rate                 : 448 Kbps
Encoded date                     : UTC 2010-03-26 15:58:24
Tagged date                      : UTC 2010-03-26 15:58:39
Writing application              : mp4creator 1.6.1d

Video
ID                               : 1
Format                           : AVC
Format/Info                      : Advanced Video Codec
Format profile                   : Baseline@L1.3
Format settings, CABAC           : No
Format settings, ReFrames        : 1 frame
Codec ID                         : avc1
Codec ID/Info                    : Advanced Video Coding
Duration                         : 1h 23mn
Bit rate mode                    : Variable
Bit rate                         : 383 Kbps
Width                            : 480 pixels
Height                           : 272 pixels
Display aspect ratio             : 16:9
Frame rate mode                  : Constant
Frame rate                       : 24.000 fps
Resolution                       : 24 bits
Colorimetry                      : 4:2:0
Scan type                        : Progressive
Bits/(Pixel*Frame)               : 0.122
Stream size                      : 230 MiB (85%)
Encoded date                     : UTC 2010-03-26 15:58:24
Tagged date                      : UTC 2010-03-26 15:58:37

Audio
ID                               : 2
Format                           : AAC
Format/Info                      : Advanced Audio Codec
Format version                   : Version 4
Format profile                   : LC
Format settings, SBR             : Yes
Format settings, PS              : No
Codec ID                         : 40
Duration                         : 1h 23mn
Bit rate mode                    : Variable
Bit rate                         : 63.4 Kbps
Maximum bit rate                 : 143 Kbps
Channel(s)                       : 2 channels
Channel positions                : L R
Sampling rate                    : 48.0 KHz
Resolution                       : 16 bits
Stream size                      : 38.1 MiB (14%)
Encoded date                     : UTC 2010-03-26 15:58:37
Tagged date                      : UTC 2010-03-26 15:58:39

A young woman tries to cover up a deadly hit and run accident, only to have the supposedly dead victim come back to terrorize her. 
http://www.imdb.com/title/tt1199550/

PLEASE SEED AND ENJOY THANKS

NOTE To view H264 files on you,re PC i recomend VLC media player or Media player classic

To burn MP4 H264 files to disc i recmend convertx to dvd click link below thanks
   
http://thepiratebay.org/torrent/5018839/VSO.Convert-X.to.DVD.3.5.3%28vice%29

screen shots 
http://img121.imageshack.us/img121/3220/hitrunh264vicemp4thumbs.jpg